<mxfile host="app.diagrams.net" modified="2023-07-12T03:15:41.696Z" agent="Mozilla/5.0 (Macintosh; Intel Mac OS X 10_15_7) AppleWebKit/605.1.15 (KHTML, like Gecko) Version/16.5.1 Safari/605.1.15" etag="IOdh6jsDKwCO5VvEY7pm" version="21.6.2" type="github">
  <diagram name="Page-1" id="0783ab3e-0a74-02c8-0abd-f7b4e66b4bec">
    <mxGraphModel dx="1434" dy="827" grid="1" gridSize="10" guides="1" tooltips="1" connect="1" arrows="1" fold="1" page="1" pageScale="1" pageWidth="850" pageHeight="1100" background="none" math="0" shadow="0">
      <root>
        <mxCell id="0" />
        <mxCell id="1" parent="0" />
        <mxCell id="1c1d494c118603dd-1" value="口径服务bid自动同步流程图" style="swimlane;html=1;childLayout=stackLayout;startSize=20;rounded=0;shadow=0;comic=0;labelBackgroundColor=none;strokeWidth=1;fontFamily=Verdana;fontSize=12;align=center;" parent="1" vertex="1">
          <mxGeometry x="40" y="40" width="750" height="990" as="geometry" />
        </mxCell>
        <mxCell id="1c1d494c118603dd-2" value="红石平台" style="swimlane;html=1;startSize=20;" parent="1c1d494c118603dd-1" vertex="1">
          <mxGeometry y="20" width="250" height="970" as="geometry" />
        </mxCell>
        <mxCell id="sFa2hMkLd4iDLPOs6Pcz-5" value="" style="edgeStyle=orthogonalEdgeStyle;rounded=0;orthogonalLoop=1;jettySize=auto;html=1;" edge="1" parent="1c1d494c118603dd-2" source="sFa2hMkLd4iDLPOs6Pcz-1" target="sFa2hMkLd4iDLPOs6Pcz-2">
          <mxGeometry relative="1" as="geometry" />
        </mxCell>
        <mxCell id="sFa2hMkLd4iDLPOs6Pcz-1" value="bid数据CRUD" style="rounded=0;whiteSpace=wrap;html=1;" vertex="1" parent="1c1d494c118603dd-2">
          <mxGeometry x="65" y="220" width="120" height="60" as="geometry" />
        </mxCell>
        <mxCell id="sFa2hMkLd4iDLPOs6Pcz-2" value="CDB（mysql）" style="shape=cylinder3;whiteSpace=wrap;html=1;boundedLbl=1;backgroundOutline=1;size=15;" vertex="1" parent="1c1d494c118603dd-2">
          <mxGeometry x="95" y="380" width="60" height="80" as="geometry" />
        </mxCell>
        <mxCell id="sFa2hMkLd4iDLPOs6Pcz-4" value="" style="edgeStyle=orthogonalEdgeStyle;rounded=0;orthogonalLoop=1;jettySize=auto;html=1;" edge="1" parent="1c1d494c118603dd-2" source="sFa2hMkLd4iDLPOs6Pcz-3" target="sFa2hMkLd4iDLPOs6Pcz-1">
          <mxGeometry relative="1" as="geometry" />
        </mxCell>
        <mxCell id="sFa2hMkLd4iDLPOs6Pcz-3" value="开始" style="ellipse;whiteSpace=wrap;html=1;aspect=fixed;" vertex="1" parent="1c1d494c118603dd-2">
          <mxGeometry x="85" y="50" width="80" height="80" as="geometry" />
        </mxCell>
        <mxCell id="1c1d494c118603dd-3" value="飞流平台" style="swimlane;html=1;startSize=20;" parent="1c1d494c118603dd-1" vertex="1">
          <mxGeometry x="250" y="20" width="250" height="970" as="geometry" />
        </mxCell>
        <mxCell id="sFa2hMkLd4iDLPOs6Pcz-6" value="mysql数据同步任务" style="rounded=0;whiteSpace=wrap;html=1;" vertex="1" parent="1c1d494c118603dd-3">
          <mxGeometry x="75" y="220" width="120" height="60" as="geometry" />
        </mxCell>
        <mxCell id="1c1d494c118603dd-4" value="口径服务" style="swimlane;html=1;startSize=20;" parent="1c1d494c118603dd-1" vertex="1">
          <mxGeometry x="500" y="20" width="250" height="970" as="geometry" />
        </mxCell>
      </root>
    </mxGraphModel>
  </diagram>
</mxfile>
